<svg xmlns="http://www.w3.org/2000/svg" width="163" height="78" viewBox="0 0 163 78" fill="none">
<path d="M36.8223 77.1004C32.8684 77.1004 29.6455 73.8775 29.6455 69.9236V0.00012207H34.6294V69.9236C34.6294 71.1364 35.6096 72.1165 36.8223 72.1165C38.0351 72.1165 39.0152 71.1364 39.0152 69.9236V0.00012207H43.9991V69.9236C43.9991 73.8775 40.7762 77.1004 36.8223 77.1004Z" fill="white"/>
<path d="M96.1065 77.1006C92.1526 77.1006 88.9297 73.8777 88.9297 69.9239V7.30999C88.9297 3.35613 92.1526 0.13324 96.1065 0.13324C100.06 0.13324 103.283 3.35613 103.283 7.30999V69.9239C103.283 73.8777 100.06 77.1006 96.1065 77.1006ZM96.1065 5.1171C94.8937 5.1171 93.9136 6.09726 93.9136 7.30999V69.9239C93.9136 71.1366 94.8937 72.1167 96.1065 72.1167C97.3192 72.1167 98.2994 71.1366 98.2994 69.9239V7.30999C98.2994 6.09726 97.3192 5.1171 96.1065 5.1171Z" fill="white"/>
<path d="M73.6456 7.60902C73.6456 3.48904 70.2898 0.13324 66.1698 0.13324H59.292V77.2335H64.2759V35.5352H66.1698C67.5403 35.5352 68.6617 36.6566 68.6617 38.0272V77.2335H73.6456V38.0272C73.6456 36.1167 72.9229 34.3723 71.7351 33.0433C72.9229 31.7143 73.6456 29.9699 73.6456 28.0594V7.60902ZM64.2759 30.5514V5.1171H66.1698C67.5403 5.1171 68.6617 6.23016 68.6617 7.60902V28.0594C68.6617 29.43 67.5403 30.5514 66.1698 30.5514H64.2759Z" fill="white"/>
<path d="M132.928 7.60902C132.928 3.48904 129.572 0.13324 125.452 0.13324H118.574V77.2335H123.558V35.5352H125.452C126.831 35.5352 127.944 36.6566 127.944 38.0272V77.2335H132.928V38.0272C132.928 36.1167 132.205 34.3723 131.017 33.0433C132.205 31.7143 132.928 29.9699 132.928 28.0594V7.60902ZM123.558 30.5514V5.1171H125.452C126.831 5.1171 127.944 6.23016 127.944 7.60902V28.0594C127.944 29.43 126.831 30.5514 125.452 30.5514H123.558Z" fill="white"/>
<path d="M7.1768 0.13324C3.22291 0.13324 0 3.35613 0 7.30999V77.2335H4.98389V35.5352H9.36971V77.2335H14.3536V7.30999C14.3536 3.35613 11.1307 0.13324 7.1768 0.13324ZM4.98389 30.5514V7.30999C4.98389 6.09725 5.96405 5.1171 7.1768 5.1171C8.38954 5.1171 9.36971 6.09725 9.36971 7.30999V30.5514H4.98389Z" fill="white"/>
<path d="M155.397 0.13324C151.443 0.13324 148.22 3.35613 148.22 7.30999V77.2335H153.204V35.5352H157.589V77.2335H162.573V7.30999C162.573 3.35613 159.35 0.13324 155.397 0.13324ZM153.204 30.5514V7.30999C153.204 6.09725 154.184 5.1171 155.397 5.1171C156.609 5.1171 157.589 6.09725 157.589 7.30999V30.5514H153.204Z" fill="white"/>
</svg>
